<?xml version="1.0" standalone="no"?>
<!DOCTYPE svg PUBLIC "-//W3C//DTD SVG 20010904//EN"
 "http://www.w3.org/TR/2001/REC-SVG-20010904/DTD/svg10.dtd">
<svg version="1.0" xmlns="http://www.w3.org/2000/svg"
 width="1200.000000pt" height="1200.000000pt" viewBox="0 0 1200.000000 1200.000000"
 preserveAspectRatio="xMidYMid meet">
<metadata>
Created by potrace 1.11, written by Peter Selinger 2001-2013
</metadata>
<g transform="translate(0.000000,1200.000000) scale(0.100000,-0.100000)"
fill="#000000" stroke="none">
<path d="M5708 11765 c-1 -1 -50 -6 -108 -9 -58 -4 -118 -8 -135 -10 -16 -3
-61 -7 -100 -11 -38 -3 -81 -8 -95 -10 -14 -2 -45 -7 -70 -10 -114 -14 -383
-64 -542 -100 -484 -110 -1058 -336 -1510 -594 -21 -11 -54 -30 -73 -41 -200
-113 -574 -374 -750 -523 -312 -265 -487 -436 -729 -717 -201 -232 -419 -537
-593 -830 -280 -470 -514 -1057 -642 -1610 -29 -123 -39 -171 -46 -210 -3 -19
-10 -57 -15 -85 -5 -27 -12 -66 -14 -85 -3 -19 -8 -46 -10 -60 -7 -34 -24
-172 -31 -240 -3 -30 -7 -73 -10 -95 -26 -264 -27 -945 0 -1083 1 -9 6 -46 9
-82 4 -36 8 -76 10 -90 2 -14 7 -52 11 -85 4 -33 9 -69 11 -80 2 -11 9 -49 15
-85 6 -36 13 -78 16 -95 3 -16 14 -70 25 -120 10 -49 21 -101 24 -115 3 -14
14 -61 25 -105 12 -44 22 -87 24 -95 22 -111 179 -572 251 -737 8 -18 20 -48
28 -65 63 -144 184 -391 250 -506 20 -35 36 -66 36 -68 0 -9 222 -357 280
-439 606 -858 1391 -1513 2335 -1950 44 -20 107 -48 140 -62 33 -14 74 -31 90
-38 17 -7 39 -16 50 -20 96 -37 137 -52 250 -91 125 -43 409 -129 457 -138 13
-2 50 -11 83 -19 108 -28 369 -78 535 -102 70 -10 221 -26 425 -44 92 -8 764
-7 800 2 11 3 61 8 110 11 50 4 101 9 115 11 14 3 48 7 75 10 28 3 61 7 74 10
13 2 49 7 80 11 31 3 58 8 61 9 3 2 26 6 50 10 124 17 482 98 620 140 399 123
666 228 990 391 675 340 1290 817 1770 1374 30 35 62 71 70 80 8 8 28 34 45
55 16 22 35 46 42 53 29 30 216 285 291 397 203 305 412 698 545 1025 98 241
179 488 242 735 64 252 108 474 129 650 4 28 8 59 10 70 3 11 8 56 11 100 4
44 8 91 11 105 26 148 25 834 -1 1065 -2 17 -6 59 -10 95 -5 56 -28 223 -40
300 -11 69 -16 96 -20 110 -2 8 -6 32 -9 52 -7 49 -71 327 -91 398 -38 133
-49 171 -81 271 -48 154 -66 202 -144 399 -75 186 -246 550 -280 595 -4 6 -21
35 -37 65 -43 80 -97 172 -147 250 -75 118 -234 349 -283 410 -6 8 -51 65 -99
125 -214 269 -485 550 -753 781 -19 16 -39 34 -45 39 -6 6 -31 26 -56 45 -25
19 -50 39 -56 45 -6 5 -25 21 -43 35 -19 14 -47 37 -65 51 -28 23 -120 89
-255 183 -385 268 -909 528 -1395 691 -182 61 -468 143 -561 161 -11 2 -29 6
-40 8 -83 18 -284 56 -350 66 -44 6 -91 13 -105 15 -74 11 -239 29 -375 41
-59 6 -702 14 -707 9z"/>
</g>
</svg>
